<svg width="44" height="13" viewBox="0 0 44 13" fill="none" xmlns="http://www.w3.org/2000/svg">
<path d="M28.7368 12.7006H34.7322L36.9451 7.45123V2.29678H38.4397V12.7006H44V0.25013H33.9384L28.7368 12.7006ZM0 12.7006H5.63613V2.2778H7.14928V7.69768L9.34323 12.7006H15.2253L12.4264 7.26172C13.2587 6.48469 13.5233 5.85922 13.5233 4.53264C13.5233 1.06481 12.4832 0.249823 9.40007 0.249823H0V12.7006ZM21.5187 2.14156H23.0887V5.68532H28.9519C28.9711 5.34426 28.9519 5.04117 28.9519 4.88931C28.9519 0.739061 27.7037 0 22.4079 0C16.5258 0 15.6556 1.0991 15.6556 5.51448C15.6556 12.1284 15.9394 13 22.4079 13C28.1767 13 28.8764 11.9768 28.9519 7.25804H23.0887V10.9154H21.5187V2.14156Z" fill="#D3648D"/>
</svg>
