<svg xmlns="http://www.w3.org/2000/svg" width="26.795" height="18.757" viewBox="0 0 26.795 18.757">
  <g id="_8" data-name="8" transform="translate(0 0)" opacity="0.439">
    <g id="row2" transform="translate(0 0)">
      <path id="icon:3_2_" d="M4.082,32.43H.419A.42.42,0,0,1,0,32.012V25.1a.42.42,0,0,1,.419-.419H4.082ZM12.623,19.2,4.794,24.706V32.43l7.829,5.527Zm1.926,8.6a1.577,1.577,0,0,1,0,2.366l1.11,1a2.937,2.937,0,0,0,0-4.4Zm3.684-3.391a6.091,6.091,0,0,1,0,9.127l1.109,1a7.451,7.451,0,0,0,0-11.158Zm3.5-3.2a10.388,10.388,0,0,1,0,15.554l1.11,1a11.747,11.747,0,0,0,0-17.584Z" transform="translate(0 -19.2)" fill="#fff"/>
    </g>
  </g>
</svg>
